<?xml version="1.0" encoding="utf-8"?>
<!-- Generator: Adobe Illustrator 23.0.5, SVG Export Plug-In . SVG Version: 6.00 Build 0)  -->
<svg version="1.1" id="Layer_1" xmlns="http://www.w3.org/2000/svg" xmlns:xlink="http://www.w3.org/1999/xlink" x="0px" y="0px"
	 viewBox="0 0 311 303" style="enable-background:new 0 0 311 303;" xml:space="preserve">
<style type="text/css">
	.st0{fill:#0479FF;}
</style>
<g>
	<path class="st0" d="M306,121.25c-0.31,4.74-21.17,15.26-34.65,21.51c-10.42,4.83-28.28,8.78-35.82,10.31
		c-0.91,0.19-1.67,0.33-2.25,0.46c-0.82,0.16-1.28,0.24-1.28,0.24l-0.11-0.43l-2.24-8.55l-2.17-5.16l-0.03-0.06
		c-0.47-1.1,0.16-2.36,1.31-2.68l3.84-1.01c0.71-0.17,1.46-0.11,2.11,0.25c5.86,3.35,15.22,1.18,21.44-0.93
		c3.57-1.21,5.46-5.1,4.25-8.67l-2.08-6.05c-0.44-1.32,0.25-2.76,1.56-3.21l4.64-1.64c0.93-0.33,1.98-0.2,2.8,0.38l4.38,3.02
		l9.51,5.54c1.23,0.72,2.71,0.88,4.06,0.44l3.94-1.29c0,0,6.06-1.97,9.68-2.93C302.54,119.85,306,121.25,306,121.25z"/>
	<path class="st0" d="M18.29,186.78v0.05c5.24,0.1,10.76,0.03,16.47-0.18v-2.06C25.61,185.9,19.79,186.6,18.29,186.78z"/>
	<path class="st0" d="M53.53,181.73l1.67,3.66c1.84-0.15,3.7-0.32,5.57-0.49l1.48-4.6C59.21,180.8,56.3,181.28,53.53,181.73z"/>
	<path class="st0" d="M39.09,183.96v2.5c3.77-0.18,7.62-0.42,11.53-0.72l-1.46-3.32C45.53,182.99,42.16,183.5,39.09,183.96z"/>
	<path class="st0" d="M107.29,171.83l-2.33,7.48c5.12-0.78,10.22-1.61,15.28-2.46v-7.79C115.84,170.03,111.52,170.95,107.29,171.83z
		"/>
	<path class="st0" d="M150.9,161.88v9.43c7.28-1.4,14.31-2.82,20.97-4.2v-10.73C164.81,158.32,157.8,160.15,150.9,161.88z"/>
	<path class="st0" d="M127.03,167.55h9.62v3.69h-12.11v4.88c7.49-1.29,14.87-2.63,22.03-3.99v-9.19
		C139.94,164.58,133.42,166.11,127.03,167.55z"/>
	<path class="st0" d="M175.94,166.26c0.55-0.12,1.1-0.23,1.65-0.35l-1.82-5.43L175.94,166.26z"/>
	<path class="st0" d="M196.46,161.8c0.15-0.03,0.29-0.07,0.44-0.1l0.04-1.32L196.46,161.8z"/>
	<path class="st0" d="M221.41,152.36c2.64,0,4.85,0.67,6.64,2.01c1.56-0.39,2.39-0.6,2.39-0.6c-1.57-9.45-4.72-14.17-4.72-14.17
		c-15.75,5.59-31.82,10.6-47.71,15.08l3.34,10.44c3.75-0.8,7.35-1.59,10.77-2.34l3.18-9.94h5.55v7.98
		c3.94-0.89,7.55-1.73,10.81-2.49c0.37-0.75,0.8-1.44,1.29-2.07C214.96,153.66,217.78,152.36,221.41,152.36z"/>
	<path class="st0" d="M100.79,179.94l2.04-7.2c-1.39,0.28-2.76,0.56-4.13,0.83l1.8,6.4C100.6,179.97,100.69,179.96,100.79,179.94z"
		/>
	<path class="st0" d="M74.77,178.11c-2.76,0.5-5.45,0.97-8.06,1.42l-1.46,4.92c4.9-0.5,9.86-1.06,14.86-1.68l-1.41-4.66H74.77z"/>
	<path class="st0" d="M82.49,176.7l1.79,5.54c4.15-0.54,8.31-1.11,12.47-1.71l-1.92-6.19C90.6,175.18,86.48,175.96,82.49,176.7z"/>
	<path class="st0" d="M17.89,186.83c0.13,0,0.26,0,0.39,0.01v-0.05C18.04,186.81,17.89,186.83,17.89,186.83z"/>
	<g>
		<path class="st0" d="M34.76,184.59v2.06c1.43-0.05,2.87-0.11,4.33-0.19v-2.5C37.57,184.18,36.13,184.39,34.76,184.59z"/>
		<path class="st0" d="M49.16,182.42l1.46,3.32c1.52-0.11,3.04-0.23,4.58-0.36l-1.67-3.66C52.04,181.97,50.57,182.2,49.16,182.42z"
			/>
		<path class="st0" d="M74.77,178.11h3.93l1.41,4.66c1.39-0.17,2.77-0.35,4.16-0.53l-1.79-5.54
			C79.86,177.19,77.28,177.66,74.77,178.11z"/>
		<path class="st0" d="M62.24,180.29l-1.48,4.6c1.49-0.14,2.99-0.29,4.5-0.44l1.46-4.92C65.2,179.79,63.71,180.05,62.24,180.29z"/>
		<path class="st0" d="M98.7,173.58c-1.3,0.26-2.59,0.52-3.87,0.77l1.92,6.19c1.25-0.18,2.5-0.36,3.75-0.55L98.7,173.58z"/>
		<path class="st0" d="M102.83,172.75l-2.04,7.2c1.39-0.21,2.78-0.42,4.17-0.63l2.33-7.48C105.79,172.14,104.3,172.45,102.83,172.75
			z"/>
		<path class="st0" d="M136.66,171.25v-3.69h-9.62c-2.28,0.52-4.55,1.02-6.8,1.51v7.79c1.44-0.24,2.87-0.49,4.3-0.73v-4.88H136.66z"
			/>
		<path class="st0" d="M146.57,162.95v9.19c1.45-0.28,2.89-0.55,4.33-0.83v-9.43C149.45,162.24,148.01,162.6,146.57,162.95z"/>
		<path class="st0" d="M178,154.67c-2.05,0.58-4.1,1.15-6.14,1.71v10.73c1.37-0.29,2.74-0.57,4.08-0.85l-0.17-5.78l1.82,5.43
			c1.27-0.27,2.52-0.53,3.75-0.8L178,154.67z"/>
		<path class="st0" d="M195.29,152.83l-3.18,9.94c1.48-0.33,2.94-0.65,4.35-0.97l0.48-1.42l-0.04,1.32c1.35-0.3,2.66-0.6,3.94-0.89
			v-7.98H195.29z"/>
		<path class="st0" d="M221.41,152.36c-3.62,0-6.44,1.3-8.47,3.89c-0.49,0.63-0.92,1.32-1.29,2.07c7.72-1.81,13.41-3.21,16.4-3.95
			C226.26,153.03,224.05,152.36,221.41,152.36z"/>
	</g>
	<path class="st0" d="M100.64,180.47l0.15-0.52c-0.09,0.01-0.19,0.03-0.28,0.04L100.64,180.47z"/>
	<path class="st0" d="M18.29,186.78v-30.26h9.01v-3.69H5v3.69h8.98v30.55h4.3v-0.24c-0.13,0-0.26,0-0.39-0.01
		C17.89,186.83,18.04,186.81,18.29,186.78z"/>
	<path class="st0" d="M34.76,187.08h4.33v-0.61c-1.45,0.07-2.9,0.13-4.33,0.19V187.08z"/>
	<path class="st0" d="M39.09,171.65h6.02l4.05,9.2c1.41-0.22,2.88-0.46,4.37-0.7l-4.33-9.49c1.71-0.8,3.03-1.99,3.96-3.56
		c0.93-1.58,1.4-3.42,1.4-5.54c0-3.37-0.86-5.93-2.59-7.68c-1.73-1.75-4.26-2.62-7.62-2.62h-9.6v31.76c1.37-0.2,2.81-0.41,4.33-0.63
		V171.65z M39.09,154.95h5.18c3.98,0,5.97,2.2,5.97,6.6c0,1.95-0.54,3.5-1.61,4.67c-1.07,1.16-2.51,1.74-4.32,1.74h-5.22V154.95z"/>
	<path class="st0" d="M51.2,187.08h4.63v-0.28l-0.64-1.41c-1.53,0.13-3.06,0.25-4.58,0.36L51.2,187.08z"/>
	<path class="st0" d="M67.14,176.54h7.64c2.51-0.45,5.09-0.92,7.71-1.41l-7.71-23.87h-3.69l-8.85,27.46
		c1.46-0.25,2.95-0.5,4.47-0.76L67.14,176.54z M72.92,157.28l4.68,15.57h-9.34L72.92,157.28z"/>
	<path class="st0" d="M81.41,187.08h4.42l-1.56-4.83c-1.39,0.18-2.78,0.35-4.16,0.53L81.41,187.08z"/>
	<path class="st0" d="M60.06,187.08h4.42l0.78-2.63c-1.51,0.15-3,0.3-4.5,0.44L60.06,187.08z"/>
	<path class="st0" d="M113.2,151.26h-4.73l-5.64,19.92c1.48-0.3,2.96-0.61,4.46-0.92L113.2,151.26z"/>
	<path class="st0" d="M92.85,151.26h-4.7l6.68,21.52c1.28-0.25,2.57-0.51,3.87-0.77L92.85,151.26z"/>
	<path class="st0" d="M100.64,180.47l-0.14-0.48c-1.25,0.19-2.5,0.37-3.75,0.55l2.03,6.54h3.76l2.42-7.76
		c-1.39,0.21-2.78,0.42-4.17,0.63L100.64,180.47z"/>
	<path class="st0" d="M124.54,165.98v-11.03h13.88v-3.69h-18.18v16.24c1.43-0.31,2.86-0.63,4.3-0.95
		C125.37,166.35,124.54,165.98,124.54,165.98z"/>
	<path class="st0" d="M120.24,187.08h18.42v-3.69h-14.11v-7.26c-1.43,0.25-2.86,0.49-4.3,0.73V187.08z"/>
	<path class="st0" d="M146.57,187.08h17.76v-3.69H150.9v-12.07c-1.43,0.28-2.88,0.55-4.33,0.83V187.08z"/>
	<path class="st0" d="M150.9,151.26h-4.33v10.12c1.44-0.35,2.88-0.71,4.33-1.07V151.26z"/>
	<path class="st0" d="M196.54,173.74v13.34h4.3v-26.26c-1.28,0.29-2.59,0.59-3.94,0.89L196.54,173.74z"/>
	<path class="st0" d="M177.41,151.26h-5.55v3.55c2.04-0.56,4.09-1.13,6.14-1.71L177.41,151.26z"/>
	<path class="st0" d="M171.86,187.08h4.3v-13.34l-0.23-7.48c-1.34,0.28-2.7,0.57-4.08,0.85V187.08z"/>
	<path class="st0" d="M186.35,180.77l-5.01-15.66c-1.24,0.26-2.49,0.53-3.75,0.8l7.09,21.17h3.29l8.49-25.28
		c-1.41,0.32-2.87,0.64-4.35,0.97L186.35,180.77z"/>
	<path class="st0" d="M228.04,154.37c-2.99,0.74-8.68,2.14-16.4,3.95c-1.16,2.33-1.74,5.23-1.74,8.7v6.44
		c0.08,4.48,1.14,7.95,3.19,10.41s4.83,3.68,8.36,3.68c3.67,0,6.5-1.26,8.49-3.79c1.99-2.52,2.99-6.12,2.99-10.8v-6.23
		c-0.05-4.61-1.08-8.16-3.09-10.64C229.3,155.42,228.7,154.85,228.04,154.37z M228.63,173.39c-0.05,3.5-0.65,6.09-1.81,7.79
		c-1.16,1.69-2.95,2.54-5.36,2.54c-2.42,0-4.23-0.92-5.45-2.75c-1.21-1.83-1.82-4.5-1.82-8v-6.14c0.02-3.48,0.63-6.11,1.84-7.9
		c1.22-1.79,3.01-2.68,5.37-2.68c2.45,0,4.26,0.88,5.45,2.65c1.18,1.76,1.78,4.46,1.78,8.08V173.39z"/>
	<path class="st0" d="M252.74,152.36c-3.62,0-6.44,1.3-8.47,3.89c-2.02,2.6-3.03,6.18-3.03,10.76v6.44
		c0.08,4.48,1.14,7.95,3.19,10.41s4.83,3.68,8.36,3.68c3.67,0,6.5-1.26,8.49-3.79c1.99-2.52,2.99-6.12,2.99-10.8v-6.23
		c-0.05-4.61-1.08-8.16-3.09-10.64C259.16,153.6,256.35,152.36,252.74,152.36z M259.96,173.39c-0.05,3.5-0.65,6.09-1.81,7.79
		c-1.16,1.69-2.95,2.54-5.36,2.54c-2.42,0-4.23-0.92-5.45-2.75c-1.21-1.83-1.82-4.5-1.82-8v-6.14c0.02-3.48,0.63-6.11,1.84-7.9
		c1.22-1.79,3.01-2.68,5.37-2.68c2.45,0,4.26,0.88,5.45,2.65c1.18,1.76,1.78,4.46,1.78,8.08V173.39z"/>
	<path class="st0" d="M290.81,156.58c-2.21-2.5-5.31-3.75-9.31-3.75h-8.16v34.25H281c4.26,0,7.52-1.23,9.76-3.7
		c2.24-2.47,3.36-5.97,3.36-10.5v-5.74C294.12,162.6,293.02,159.08,290.81,156.58z M289.87,173.07c-0.03,3.41-0.74,5.98-2.14,7.71
		c-1.4,1.73-3.61,2.6-6.63,2.6h-3.46v-26.86h3.86c2.81,0,4.9,0.84,6.29,2.53c1.39,1.69,2.08,4.33,2.08,7.94V173.07z"/>
</g>
</svg>
